<?xml version="1.0" encoding="UTF-8" standalone="no"?>
<!-- Generator: Adobe Illustrator 18.0.0, SVG Export Plug-In . SVG Version: 6.00 Build 0)  -->

<svg
   xmlns:dc="http://purl.org/dc/elements/1.1/"
   xmlns:cc="http://creativecommons.org/ns#"
   xmlns:rdf="http://www.w3.org/1999/02/22-rdf-syntax-ns#"
   xmlns:svg="http://www.w3.org/2000/svg"
   xmlns="http://www.w3.org/2000/svg"
   xmlns:sodipodi="http://sodipodi.sourceforge.net/DTD/sodipodi-0.dtd"
   xmlns:inkscape="http://www.inkscape.org/namespaces/inkscape"
   version="1.1"
   id="Capa_1"
   x="0px"
   y="0px"
   viewBox="0 0 347.873 347.873"
   style="enable-background:new 0 0 347.873 347.873;"
   xml:space="preserve"
   sodipodi:docname="module_logo.svg"
   inkscape:version="0.92.5 (2060ec1f9f, 2020-04-08)"
   inkscape:export-filename="/home/john/WWW/dolibarr/htdocs/custom/externalaccess/img/object_module.png"
   inkscape:export-xdpi="17.661619"
   inkscape:export-ydpi="17.661619"><metadata
   id="metadata47"><rdf:RDF><cc:Work
       rdf:about=""><dc:format>image/svg+xml</dc:format><dc:type
         rdf:resource="http://purl.org/dc/dcmitype/StillImage" /><dc:title></dc:title></cc:Work></rdf:RDF></metadata><defs
   id="defs45">
	
	
	
	
</defs><sodipodi:namedview
   pagecolor="#505050"
   bordercolor="#ffffff"
   borderopacity="1"
   objecttolerance="10"
   gridtolerance="10"
   guidetolerance="10"
   inkscape:pageopacity="0"
   inkscape:pageshadow="2"
   inkscape:window-width="1920"
   inkscape:window-height="1011"
   id="namedview43"
   showgrid="false"
   inkscape:zoom="1.9188291"
   inkscape:cx="255.40191"
   inkscape:cy="151.43205"
   inkscape:window-x="1920"
   inkscape:window-y="0"
   inkscape:window-maximized="1"
   inkscape:current-layer="Capa_1" />
<rect
   id="rect2"
   height="34.249001"
   width="219.576"
   y="76.603996"
   x="64.148003"
   style="fill:#00384e;fill-opacity:1" /><rect
   id="rect4"
   height="80.214996"
   width="150.04601"
   y="136.38901"
   x="64.148003"
   style="fill:#00384e;fill-opacity:1" /><path
   inkscape:connector-curvature="0"
   id="path8"
   d="M 337.873,33.937 H 10 c -5.523,0 -10,4.477 -10,10 V 254.33 c 0,5.523 4.477,10 10,10 h 114.979 c -4.407,21.476 -14.601,32.572 -14.674,32.651 -2.793,2.885 -3.59,7.16 -2.023,10.857 1.566,3.697 5.191,6.099 9.207,6.099 h 112.895 c 4.016,0 7.641,-2.402 9.207,-6.099 1.566,-3.697 0.77,-7.973 -2.023,-10.857 -0.117,-0.122 -10.279,-11.174 -14.676,-32.651 h 114.981 c 5.523,0 10,-4.477 10,-10 V 43.937 c 0,-5.523 -4.477,-10 -10,-10 z m -10,210.392 h -16.311 v -2.816 c 0,-5.523 -4.477,-10 -10,-10 -5.523,0 -10,4.477 -10,10 v 2.816 h -10.439 v -2.816 c 0,-5.523 -4.477,-10 -10,-10 -5.522,0 -10,4.477 -10,10 v 2.816 H 211.341 136.532 20 V 53.937 h 307.873 z"
   style="fill:#999999" />
<g
   id="g12">
</g>
<g
   id="g14">
</g>
<g
   id="g16">
</g>
<g
   id="g18">
</g>
<g
   id="g20">
</g>
<g
   id="g22">
</g>
<g
   id="g24">
</g>
<g
   id="g26">
</g>
<g
   id="g28">
</g>
<g
   id="g30">
</g>
<g
   id="g32">
</g>
<g
   id="g34">
</g>
<g
   id="g36">
</g>
<g
   id="g38">
</g>
<g
   id="g40">
</g>
<path
   d="m 293.03036,212.61168 c 5.38421,2.84682 16.70961,5.81742 16.89528,5.9412 0.24755,0.12377 3.74419,0.77359 10.67558,4.02268 6.90046,3.2491 7.27178,10.30426 7.27178,10.30426 V 244.329 l -50.68583,0.031 -50.68583,-0.031 v -11.44918 c 0,0 0.37132,-7.05516 7.27177,-10.30426 6.90046,-3.24909 10.42804,-3.89891 10.67559,-4.02268 0.21661,-0.12378 11.51107,-3.09438 16.89528,-5.9412 0.12377,-0.0619 0.24755,-0.12378 0.37133,-0.21661 0,0 0.031,0 0.031,-0.0309 1.14491,-0.74266 1.82567,-2.01135 1.82567,-3.34193 v -5.19855 -1.57813 c -18.00925,0.15473 -23.33157,-7.55027 -23.33157,-7.55027 0,0 10.27332,-0.15472 9.65444,-27.29237 -0.64981,-27.13765 11.85146,-31.62449 16.52395,-33.38828 13.5843,-5.16761 20.39192,3.06343 20.39192,3.06343 15.71942,-1.45436 20.08249,15.71941 18.13303,35.30679 -1.91851,19.58738 8.81896,22.61987 8.81896,22.61987 -7.39555,7.55027 -22.96024,7.24083 -22.96024,7.24083 v 1.57813 0 5.19855 c 0,1.36153 0.68076,2.63022 1.82567,3.34193 z"
   id="path2"
   inkscape:connector-curvature="0"
   style="stroke-width:0.3094373;fill:#cb4f24;fill-opacity:1" /></svg>